<?xml version="1.0" standalone="no"?>
<!DOCTYPE svg PUBLIC "-//W3C//DTD SVG 20010904//EN"
 "http://www.w3.org/TR/2001/REC-SVG-20010904/DTD/svg10.dtd">
<svg version="1.0" xmlns="http://www.w3.org/2000/svg"
 width="500.000000pt" height="500.000000pt" viewBox="0 0 500.000000 500.000000"
 preserveAspectRatio="xMidYMid meet">
<metadata>
Created by potrace 1.14, written by Peter Selinger 2001-2017
</metadata>
<g transform="translate(0.000000,500.000000) scale(0.100000,-0.100000)"
fill="#000000" stroke="none">
<path d="M0 2500 l0 -2500 2500 0 2500 0 0 2500 0 2500 -2500 0 -2500 0 0
-2500z m1279 1203 c5 -10 140 -358 301 -773 160 -415 295 -759 299 -763 4 -4
137 336 296 755 158 420 292 771 297 781 8 16 36 17 411 15 l402 -3 3 -1207 2
-1208 -340 0 -340 0 -2 657 -3 656 -224 -656 -224 -657 -282 0 -281 0 -214
628 c-118 345 -222 645 -231 667 -17 39 -18 16 -18 -627 l-1 -668 -335 0 -335
0 0 1210 0 1210 405 0 c375 0 405 -1 414 -17z m2871 -813 c214 -40 358 -244
321 -452 -56 -322 -443 -445 -673 -215 -152 152 -152 399 0 555 93 95 223 137
352 112z"/>
</g>
</svg>
